<?xml version="1.0" encoding="utf-8"?>
<!-- Generator: Adobe Illustrator 24.1.2, SVG Export Plug-In . SVG Version: 6.00 Build 0)  -->
<svg version="1.1" id="Componente_10_1" xmlns="http://www.w3.org/2000/svg" xmlns:xlink="http://www.w3.org/1999/xlink" x="0px"
	 y="0px" viewBox="0 0 206.7 111.1" style="enable-background:new 0 0 206.7 111.1;" xml:space="preserve">
<style type="text/css">
	
		.st0{fill:none;stroke:#40E5BF;stroke-width:5.0026;stroke-linecap:round;stroke-linejoin:round;stroke-miterlimit:10.0052;stroke-dasharray:170.0888,1000.5224;}
	.st1{fill-rule:evenodd;clip-rule:evenodd;fill:#DEDEDE;}
</style>
<path id="Oval_4" class="st0" d="M167.7,100.7C151.2,63.6,107.9,46.9,71,63.3s-53.4,59.8-36.9,96.8s59.8,53.8,96.6,37.4
	S184.2,137.8,167.7,100.7z"/>
<path id="Trazado_990" class="st1" d="M85.1,4.5L82.4,5L85,19.7c0.9-0.2,1.8-0.3,2.7-0.5L85.1,4.5z M43.4,18.4l5-2.9l11.5,20l-5,2.9
	L43.4,18.4L43.4,18.4z M121.9,4.5l2.7,0.5l-2.6,14.7c-0.9-0.2-1.8-0.3-2.7-0.5L121.9,4.5L121.9,4.5z M141.1,9.4l2.6,0.9l-5.1,14
	c-0.8-0.3-1.7-0.6-2.6-0.9L141.1,9.4L141.1,9.4z M29.4,30.5l2.1-1.8l9.6,11.5c-0.7,0.6-1.4,1.2-2.1,1.8L29.4,30.5L29.4,30.5z
	 M15.5,44.7l1.8-2.1l11.5,9.6c-0.6,0.7-1.2,1.4-1.8,2.1L15.5,44.7L15.5,44.7z M107.9,0h-8.8v26.1h8.8V0z M4.6,54.5l-4.4,7.6l8.1,4.7
	l14.5,8.4l4.4-7.6L4.6,54.5L4.6,54.5z M202.3,54.5l4.4,7.6l-22.6,13l-4.4-7.6L202.3,54.5L202.3,54.5z M158.6,15.5l5,2.9l-11.5,20
	l-5-2.9L158.6,15.5L158.6,15.5z M65.9,9.4l-2.6,0.9l5.1,14c0.8-0.3,1.7-0.6,2.6-0.9L65.9,9.4z M177.6,30.5l-2.1-1.8l-9.6,11.5
	c0.7,0.6,1.4,1.2,2.1,1.8L177.6,30.5L177.6,30.5z M191.4,44.7l-1.8-2.1l-11.5,9.6c0.6,0.7,1.2,1.4,1.8,2.1L191.4,44.7z"/>
</svg>
